<?xml version="1.0" encoding="UTF-8" standalone="no"?>
<!-- Created with Inkscape (http://www.inkscape.org/) -->
<svg
   width="64mm"
   height="64mm"
   viewBox="0 0 64 64"
   version="1.1"
   id="svg1"
   xml:space="preserve"
   inkscape:version="1.3.1 (91b66b0, 2023-11-16)"
   sodipodi:docname="logo.svg"
   xmlns:inkscape="http://www.inkscape.org/namespaces/inkscape"
   xmlns:sodipodi="http://sodipodi.sourceforge.net/DTD/sodipodi-0.dtd"
   xmlns="http://www.w3.org/2000/svg"
   xmlns:svg="http://www.w3.org/2000/svg">
  <sodipodi:namedview
     id="namedview1"
     pagecolor="#ffffff"
     bordercolor="#000000"
     borderopacity="0.25"
     inkscape:showpageshadow="2"
     inkscape:pageopacity="0.0"
     inkscape:pagecheckerboard="0"
     inkscape:deskcolor="#d1d1d1"
     inkscape:document-units="mm"
     inkscape:zoom="1.4936372"
     inkscape:cx="134.90559"
     inkscape:cy="139.92689"
     inkscape:window-width="1440"
     inkscape:window-height="847"
     inkscape:window-x="0"
     inkscape:window-y="25"
     inkscape:window-maximized="0"
     inkscape:current-layer="layer1" />
  <defs
     id="defs1">
    <inkscape:perspective
       sodipodi:type="inkscape:persp3d"
       inkscape:vp_x="3.1042448 : 18.147022 : 1"
       inkscape:vp_y="0 : 999.99994 : 0"
       inkscape:vp_z="303.94612 : 54.05812 : 1"
       inkscape:persp3d-origin="105 : -134 : 1"
       id="perspective4" />
  </defs>
  <g
     inkscape:label="Layer 1"
     inkscape:groupmode="layer"
     id="layer1"
     transform="translate(-56.674541,-85.911432)">
    <path
       style="fill:#0d6efd;fill-opacity:1;stroke-width:0.610041"
       d="m 81.603814,145.5382 -7.433116,-4.36986 -6.018097,-3.54529 -6.018099,-3.54529 -0.09405,-0.35761 -0.09406,-0.3576 v -15.31979 -15.31979 l 0.09451,-0.35939 0.09451,-0.35938 6.017643,-3.544433 6.017641,-3.544428 7.432805,-4.369167 7.432803,-4.369166 0.240089,0.09331 0.240083,0.09331 13.292394,7.826122 13.29241,7.826122 0.093,0.35355 0.093,0.35355 v 15.31979 15.31979 l -0.0928,0.35267 -0.0928,0.35266 -13.29682,7.82802 -13.296819,7.82803 -0.235583,0.0921 -0.235588,0.0921 z m 19.758596,-5.88315 12.13185,-7.15306 v -14.45996 -14.45994 l -5.11526,-3.01603 -5.11526,-3.016035 -7.017048,-4.136312 -7.017053,-4.13631 h -0.112738 -0.11273 l -7.097035,4.182089 -7.09703,4.18209 -5.035336,2.971548 -5.035335,2.97155 v 14.45761 14.45762 l 5.275113,3.11051 5.275113,3.11051 6.793709,4.02813 6.793702,4.02812 0.176743,0.0155 0.176742,0.0155 z"
       id="path15"
       sodipodi:nodetypes="cccccccccccccccccccccccccccccccccccccccccccccccccccc" />
    <path
       style="fill:#000000"
       id="path1"
       d="" />
    <path
       d="m 84.161856,133.76725 -4.567369,-2.5483 -0.700367,0.28585 -0.700376,0.28584 -0.495731,0.11427 -0.495731,0.11426 -3.168791,-1.75603 -3.168782,-1.75603 -0.515321,-0.57002 -0.515323,-0.57002 0.0161,-3.59449 0.0161,-3.59448 0.164041,-0.41611 0.164042,-0.41611 1.480342,-0.85565 1.480346,-0.85565 0.06276,-3.67919 0.06276,-3.67921 0.39653,-0.35884 0.396521,-0.35886 3.663275,-2.04111 3.663267,-2.04112 0.114523,-1.62785 0.114506,-1.62786 0.229029,-0.21764 0.229038,-0.21765 3.341459,-1.854383 3.341467,-1.854382 h 0.301682 0.301682 l 2.476951,1.380374 2.476959,1.380381 1.151673,0.57845 1.151674,0.57845 0.02969,0.27424 0.02969,0.27423 0.02753,1.46272 0.02753,1.46273 3.663258,2.04521 3.66327,2.04521 0.40205,0.36386 0.40206,0.36385 v 3.60098 3.60097 l 0.28629,0.23408 0.28628,0.23408 1.43146,0.72479 1.43145,0.72479 v 3.9806 3.98059 l -0.51533,0.56995 -0.51532,0.56994 -3.19072,1.75191 -3.19072,1.75191 -0.47379,-0.11007 -0.473797,-0.11007 -0.699654,-0.28558 -0.699656,-0.28558 -4.589745,2.5527 -4.589746,2.55269 -0.321886,-0.004 -0.321886,-0.004 z m 8.681258,-1.65766 3.426793,-1.91645 0.06536,-0.19784 0.06535,-0.19785 -1.315884,-0.68709 -1.315885,-0.6871 -0.401264,-0.40081 -0.401265,-0.4008 v -3.79409 -3.79409 l 0.221568,-0.41401 0.221567,-0.414 3.411065,-1.86126 3.411061,-1.86126 h 0.38456 0.38455 l 0.91435,0.46646 0.91435,0.46646 -0.0646,-2.66249 -0.0646,-2.66248 -2.829977,-1.58148 -2.829984,-1.58149 -0.204696,0.12651 -0.204688,0.12651 v 1.11999 1.11999 l -0.744359,0.54975 -0.744358,0.54977 -2.773906,1.52318 -2.773906,1.52319 h -0.526565 -0.526565 l -3.34145,-1.85945 -3.341467,-1.85945 -0.168271,-0.2591 -0.16827,-0.25909 -0.0035,-1.07439 -0.0035,-1.07439 -0.204688,-0.12651 -0.204697,-0.12651 -2.82999,1.58149 -2.829982,1.58148 -0.06458,2.66248 -0.06458,2.66249 0.914351,-0.46646 0.914343,-0.46646 h 0.378551 0.37855 l 3.638639,1.97495 3.63864,1.97495 v 4.0944 4.09441 l -0.401265,0.4008 -0.401264,0.40081 -1.315885,0.6871 -1.315884,0.68709 0.06535,0.19785 0.06536,0.19784 3.426792,1.91645 3.426785,1.91644 h 0.343552 0.343544 z m -16.416873,-5.4431 -0.06475,-2.55838 -2.046125,-1.10985 -2.046124,-1.10984 -0.195677,0.19567 -0.195685,0.19568 0.06596,2.2656 0.06596,2.2656 2.06129,1.18713 2.06129,1.18713 0.179282,0.0198 0.179273,0.0198 z m 4.515881,1.34369 2.061291,-1.19456 0.06527,-2.48747 0.06527,-2.48748 -0.408821,0.15589 -0.408848,0.15589 -1.889514,1.02885 -1.889514,1.02885 v 2.50736 2.50736 l 0.171777,-0.01 0.171767,-0.01 z m 18.666131,-1.29267 v -2.50736 l -1.889509,-1.02885 -1.889522,-1.02885 -0.40883,-0.15589 -0.408839,-0.15589 0.06527,2.48748 0.06527,2.48747 2.061291,1.19456 2.061288,1.19456 0.171777,0.01 0.171774,0.01 z m 4.466127,1.28059 2.06129,-1.18713 0.0661,-2.2656 0.066,-2.2656 -0.19568,-0.19568 -0.19568,-0.19567 -2.04613,1.10984 -2.04612,1.10985 -0.0647,2.55838 -0.0648,2.55838 0.17927,-0.0198 0.17927,-0.0198 z m -24.281888,-6.71835 1.960418,-1.07415 -0.07566,-0.22693 -0.07566,-0.22691 -2.049423,-1.09443 -2.049431,-1.09442 -2.116604,1.14523 -2.116613,1.14523 v 0.17781 0.17782 l 2.004029,1.06709 2.004037,1.06711 0.277236,0.005 0.277237,0.005 z m 23.056528,4.3e-4 2.03643,-1.07372 -0.0708,-0.21245 -0.0708,-0.21244 -2.09332,-1.13015 -2.09332,-1.13016 -2.077692,1.17124 -2.077685,1.17123 v 0.17384 0.17386 l 1.889522,1.0551 1.889505,1.0551 0.31588,0.0161 0.31587,0.0161 z m -14.742004,-11.90808 0.06492,-2.2946 -0.293917,-0.23052 -0.293926,-0.2305 -2.011741,-1.08631 -2.01175,-1.08629 0.06501,2.57478 0.06501,2.57476 1.946776,1.09773 1.946767,1.09773 0.229038,-0.0611 0.229029,-0.0611 z m 4.401245,1.31989 1.946767,-1.09857 0.06501,-2.57476 0.06501,-2.57478 -2.01175,1.08629 -2.011741,1.08631 -0.286291,0.22417 -0.286291,0.22418 v 2.22411 2.2241 l 0.152689,0.15269 0.152689,0.15269 0.133602,-0.0139 0.133602,-0.0139 z m -1.021015,-6.79999 1.952048,-1.05546 -0.224347,-0.26147 -0.224337,-0.26149 -1.958921,-1.03065 -1.958911,-1.03064 -1.958912,1.03064 -1.958912,1.03065 -0.224303,0.26142 -0.224277,0.26141 1.896915,1.04261 1.896906,1.04261 0.517494,0.0129 0.517501,0.0129 z"
       style="fill:#0d6efd;fill-opacity:1;stroke-width:0.865634"
       id="path1-8" />
  </g>
</svg>